<svg xmlns="http://www.w3.org/2000/svg" viewBox="0 0 177 33.29" width="177" height="54" role="img" aria-label="Niotech">
  <g>
    <path fill="#7444FD" d="M127.4,13.3c0,5.17-3.89,8.39-10.08,8.39h-4.68v6.4h-5.38V4.88h10.05c6.2,0,10.08,3.22,10.08,8.42ZM121.95,13.3c0-2.56-1.65-4.05-4.94-4.05h-4.38v8.06h4.38c3.29,0,4.94-1.49,4.94-4.02h0Z"/>
    <path fill="#7444FD" d="M130.09,16.48c0-6.9,5.38-12,12.7-12s12.7,5.07,12.7,12-5.41,12-12.7,12-12.7-5.1-12.7-12ZM150.05,16.48c0-4.41-3.11-7.43-7.26-7.43s-7.26,3.01-7.26,7.43,3.11,7.43,7.26,7.43,7.26-3.01,7.26-7.43Z"/>
    <path fill="#7444FD" d="M157.71,25.81l1.83-4.05c1.96,1.43,4.88,2.42,7.66,2.42,3.19,0,4.47-1.07,4.47-2.49,0-4.34-13.5-1.36-13.5-9.98,0-3.95,3.19-7.23,9.78-7.23,2.92,0,5.9.7,8.06,2.06l-1.66,4.08c-2.15-1.23-4.38-1.83-6.43-1.83-3.19,0-4.41,1.2-4.41,2.66,0,4.28,13.5,1.33,13.5,9.85,0,3.88-3.22,7.19-9.85,7.19-3.68,0-7.4-1.1-9.46-2.69h.02Z"/>
  </g>
  <g>
    <path fill="#282C32" d="M17.68,1.54v24.61h-2.25v-3.45c-1.43,2.35-3.85,3.61-6.74,3.61-4.97,0-8.69-3.61-8.69-8.89s3.71-8.86,8.69-8.86c2.79,0,5.17,1.2,6.64,3.45V1.54s2.35,0,2.35,0ZM15.36,17.43c0-4.08-2.79-6.8-6.46-6.8s-6.5,2.72-6.5,6.8,2.79,6.8,6.5,6.8,6.46-2.72,6.46-6.8Z"/>
    <path fill="#282C32" d="M37.42,15.34v10.82h-2.25v-2.72c-1.07,1.8-3.11,2.88-6.01,2.88-3.95,0-6.37-2.06-6.37-5.07,0-2.69,1.72-4.94,6.74-4.94h5.54v-1.07c0-2.98-1.69-4.61-4.94-4.61-2.25,0-4.38.79-5.8,2.06l-1.07-1.76c1.76-1.49,4.34-2.35,7.1-2.35,4.51,0,7.06,2.25,7.06,6.77h0ZM35.06,20.92v-2.85h-5.47c-3.38,0-4.47,1.33-4.47,3.11,0,2.02,1.62,3.29,4.41,3.29s4.61-1.26,5.54-3.55h-.01Z"/>
    <path fill="#282C32" d="M53.01,25.1c-.93.83-2.32,1.23-3.68,1.23-3.29,0-5.1-1.86-5.1-5.07v-10.55h-3.11v-1.99h3.11v-3.81h2.35v3.81h5.31v1.99h-5.31v10.42c0,2.06,1.07,3.19,3.01,3.19.96,0,1.93-.29,2.59-.89l.83,1.69h0Z"/>
    <path fill="#282C32" d="M70.45,15.34v10.82h-2.25v-2.72c-1.07,1.8-3.11,2.88-6.01,2.88-3.95,0-6.37-2.06-6.37-5.07,0-2.69,1.72-4.94,6.74-4.94h5.54v-1.07c0-2.98-1.69-4.61-4.94-4.61-2.25,0-4.38.79-5.8,2.06l-1.07-1.76c1.76-1.49,4.34-2.35,7.1-2.35,4.51,0,7.06,2.25,7.06,6.77h0ZM68.1,20.92v-2.85h-5.47c-3.38,0-4.47,1.33-4.47,3.11,0,2.02,1.62,3.29,4.41,3.29s4.61-1.26,5.54-3.55h-.01Z"/>
  </g>
  <g>
    <path fill="#7444FD" d="M78.87,3.44c2.79-.41,5.49.02,5.95,3.22.23,1.6-.37,2.86,1.17,4.07,2.03,1.59,4.64-.18,6.41,1.69s-.17,4.93,1.89,6.69c1.97,1.66,6.29-.6,6.97,3.75.77,4.98-1.31,6.48-6.03,6.03-4.54-.44-1.86-4.95-3.92-7.04-1.44-1.46-5.44-1.14-6.25.89-1,2.49,1.28,7.29-3.4,7.8-1.91.2-5.56.34-6.79-1.31-1.12-1.5-1.08-6.76.13-8.21,2.16-2.58,6.28.27,8.21-2.52.83-1.21.74-4.04-.36-5.12-1.79-1.76-4.5-.09-6.21-1.9-1.03-1.1-.97-3.45-.83-4.91.17-1.79,1.29-2.88,3.05-3.15h0Z"/>
    <path fill="#7444FD" d="M100.28,4.41c.55.55,1.04,1.88,1.06,2.66.02,5.02-8.03,5.15-7.17-.96.37-2.62,4.45-3.38,6.12-1.69Z"/>
  </g>
</svg>
